<svg width="24" height="25" viewBox="0 0 24 25" fill="none" xmlns="http://www.w3.org/2000/svg">
<g id="uis:calender">
<path id="Vector" d="M2 19.504C2 21.204 3.3 22.504 5 22.504H19C20.7 22.504 22 21.204 22 19.504V11.504H2V19.504ZM19 4.50397H17V3.50397C17 2.90397 16.6 2.50397 16 2.50397C15.4 2.50397 15 2.90397 15 3.50397V4.50397H9V3.50397C9 2.90397 8.6 2.50397 8 2.50397C7.4 2.50397 7 2.90397 7 3.50397V4.50397H5C3.3 4.50397 2 5.80397 2 7.50397V9.50397H22V7.50397C22 5.80397 20.7 4.50397 19 4.50397Z" fill="#0C3777"/>
</g>
</svg>
