<svg width="24" height="25" viewBox="0 0 24 25" fill="none" xmlns="http://www.w3.org/2000/svg">
<g id="Hicon / Bold / Location">
<g id="Location">
<path id="Vector" fill-rule="evenodd" clip-rule="evenodd" d="M14.7808 20.2045C17.0905 17.2591 20 12.9799 20 10.1127C20 5.35821 16.4183 1.50397 12 1.50397C7.58172 1.50397 4 5.35821 4 10.1127C4 12.9799 6.90945 17.2591 9.21921 20.2045C10.4242 21.7411 11.0268 22.5094 12 22.5094C12.9732 22.5094 13.5758 21.7411 14.7808 20.2045ZM12 13.504C10.3431 13.504 9 12.1608 9 10.504C9 8.84711 10.3431 7.50397 12 7.50397C13.6569 7.50397 15 8.84711 15 10.504C15 12.1608 13.6569 13.504 12 13.504Z" fill="#0C3777"/>
</g>
</g>
</svg>
