<svg width="30" height="30" viewBox="0 0 30 30" fill="none" xmlns="http://www.w3.org/2000/svg">
<g id="Hicon / Bold / Tick Square">
<g id="Tick Square">
<path id="Vector" fill-rule="evenodd" clip-rule="evenodd" d="M4.94364 6.32634C3.75 7.96925 3.75 10.3128 3.75 15C3.75 19.6872 3.75 22.0307 4.94364 23.6737C5.32914 24.2042 5.79575 24.6709 6.32634 25.0564C7.96925 26.25 10.3128 26.25 15 26.25C19.6872 26.25 22.0307 26.25 23.6737 25.0564C24.2042 24.6709 24.6709 24.2042 25.0564 23.6737C26.25 22.0307 26.25 19.6872 26.25 15C26.25 10.3128 26.25 7.96925 25.0564 6.32634C24.6709 5.79575 24.2042 5.32914 23.6737 4.94364C22.0307 3.75 19.6872 3.75 15 3.75C10.3128 3.75 7.96925 3.75 6.32634 4.94364C5.79575 5.32914 5.32914 5.79575 4.94364 6.32634ZM21.9485 11.8753C22.2938 11.4896 22.2611 10.8969 21.8753 10.5515C21.4896 10.2062 20.8969 10.2389 20.5515 10.6247L16.3401 15.3286C15.4867 16.2818 14.912 16.9203 14.4206 17.3333C13.9526 17.7267 13.6777 17.8125 13.4375 17.8125C13.1973 17.8125 12.9224 17.7267 12.4544 17.3333C11.963 16.9203 11.3883 16.2818 10.5349 15.3286L9.44847 14.1151C9.1031 13.7294 8.51041 13.6966 8.12466 14.042C7.73891 14.3874 7.70617 14.98 8.05153 15.3658L9.18441 16.6312C9.97922 17.519 10.6422 18.2595 11.2479 18.7687C11.8887 19.3073 12.5799 19.6875 13.4375 19.6875C14.2951 19.6875 14.9863 19.3073 15.6271 18.7687C16.2328 18.2595 16.8958 17.519 17.6906 16.6312L21.9485 11.8753Z" fill="#892121"/>
</g>
</g>
</svg>
